<?xml version="1.0" standalone="no"?>
 <!DOCTYPE svg PUBLIC "-//W3C//DTD SVG 1.1//EN" 
 "http://www.w3.org/Graphics/SVG/1.1/DTD/svg11.dtd"> 
<svg
  xmlns:svg="http://www.w3.org/2000/svg"
  xmlns="http://www.w3.org/2000/svg"
  xmlns:xlink="http://www.w3.org/1999/xlink"
  version="1.1"
  width="419.9890mm" height="297.0022mm" viewBox="0.0000 0.0000 419.9890 297.0022">
<title>SVG Image created as e30-cluster-Edge_Cuts.svg date 2025/01/29 11:08:54 </title>
  <desc>Image generated by PCBNEW </desc>
<g style="fill:#000000; fill-opacity:1.0000;stroke:#000000; stroke-opacity:1.0000;
stroke-linecap:round; stroke-linejoin:round;"
 transform="translate(0 0) scale(1 1)">
</g>
<g style="fill:none; 
stroke:#000000; stroke-width:0.0500; stroke-opacity:1; 
stroke-linecap:round; stroke-linejoin:round;">
<path d="M133.0000 197.0000
L130.0000 194.0000
" />
<path d="M115.5333 110.8000 A50.6377 50.6377 0.0 0 0 112.2000 182.0000" />
<path d="M194.2000 112.8000 A2.0000 2.0000 0.0 0 0 192.2000 110.8000" />
<path d="M202.6000 153.2000 A2.0000 2.0000 0.0 0 0 204.6000 151.2000" />
<path d="M204.6000 128.2000 A2.0000 2.0000 0.0 0 0 202.6000 126.2000" />
<path d="M295.0000 195.0000 A2.0000 2.0000 0.0 0 0 297.0000 193.0000" />
<circle cx="66.4000" cy="222.4000" r="1.6000" /> 
<circle cx="48.0000" cy="186.2000" r="1.6000" /> 
<circle cx="339.4000" cy="138.2000" r="1.6000" /> 
<circle cx="369.6000" cy="186.2000" r="1.6000" /> 
<circle cx="120.8000" cy="200.0000" r="3.0000" /> 
<circle cx="66.4000" cy="212.0000" r="6.2000" /> 
<circle cx="86.6000" cy="212.0000" r="6.2000" /> 
<circle cx="106.8000" cy="212.0000" r="6.2000" /> 
<circle cx="167.6000" cy="212.0000" r="6.2000" /> 
<circle cx="310.4000" cy="212.0000" r="6.2000" /> 
<circle cx="117.0000" cy="218.6000" r="2.0000" /> 
<circle cx="171.0000" cy="225.0000" r="2.0000" /> 
<circle cx="36.2000" cy="196.2000" r="2.0000" /> 
<circle cx="92.0000" cy="116.4000" r="2.0000" /> 
<circle cx="185.8000" cy="91.4000" r="2.0000" /> 
<circle cx="232.4000" cy="91.4000" r="2.0000" /> 
<circle cx="326.2000" cy="116.4000" r="2.0000" /> 
<circle cx="382.0000" cy="196.2000" r="2.0000" /> 
<circle cx="300.2000" cy="218.6000" r="2.0000" /> 
<circle cx="246.2000" cy="225.0000" r="2.0000" /> 
<circle cx="208.8000" cy="175.6000" r="2.0000" /> 
<path d="M192.2000 110.8000
L115.5333 110.8000
" />
<path d="M130.0000 182.0000
L112.2000 182.0000
" />
<path d="M130.0000 182.0000
L130.0000 194.0000
" />
<path d="M176.0000 197.0000
L133.0000 197.0000
" />
<path d="M176.0000 193.4000
L176.0000 197.0000
" />
<path d="M181.4000 193.4000
L176.0000 193.4000
" />
<path d="M194.0000 171.6000
L181.4000 193.4000
" />
<path d="M194.0000 153.2000
L194.0000 171.6000
" />
<path d="M202.6000 153.2000
L194.0000 153.2000
" />
<path d="M204.6000 128.2000
L204.6000 151.2000
" />
<path d="M194.2000 126.2000
L202.6000 126.2000
" />
<path d="M194.2000 112.8000
L194.2000 126.2000
" />
<path d="M233.0000 167.4000 A2.0000 2.0000 0.0 0 0 235.0000 169.4000" />
<path d="M238.0000 111.0000 A5.0000 5.0000 0.0 0 0 233.0000 116.0000" />
<path d="M297.0000 114.0000 A3.0000 3.0000 0.0 0 0 294.0000 111.0000" />
<path d="M249.0000 190.8000 A3.0000 3.0000 0.0 0 0 252.0000 193.8000" />
<path d="M249.0000 177.4000 A8.0000 8.0000 0.0 0 0 241.0000 169.4000" />
<path d="M256.8000 193.8000
L258.0000 195.0000
" />
<path d="M252.0000 193.8000
L256.8000 193.8000
" />
<path d="M249.0000 177.4000
L249.0000 190.8000
" />
<path d="M235.0000 169.4000
L241.0000 169.4000
" />
<path d="M233.0000 167.4000
L233.0000 116.0000
" />
<path d="M295.0000 195.0000
L258.0000 195.0000
" />
<path d="M297.0000 114.0000
L297.0000 193.0000
" />
<path d="M238.0000 111.0000
L294.0000 111.0000
" />
</g>
<g style="fill:none; 
stroke:#000000; stroke-width:0.1000; stroke-opacity:1; 
stroke-linecap:round; stroke-linejoin:round;">
<path d="M267.1233 86.7013
L150.4767 86.6632
" />
<path d="M58.8000 236.6776
L358.8000 236.7157
" />
<path d="M45.2892 141.5081 A35.0000 35.0000 0.0 0 0 31.3701 168.5651" />
<path d="M93.3829 108.5157 A399.9993 399.9993 0.0 0 0 65.0137 127.2460" />
<path d="M65.0137 127.2460
L45.2892 141.5081
" />
<path d="M150.4767 86.6632 A75.0000 75.0000 0.0 0 0 113.9386 96.1653" />
<path d="M54.8000 228.3618 A20.0000 20.0000 0.0 0 0 48.9421 214.2197" />
<path d="M113.9386 96.1653
L93.3829 108.5157
" />
<path d="M31.3701 168.5651
L30.4000 206.6776
" />
<path d="M54.8000 232.6776
L58.8000 236.6776
" />
<path d="M41.4000 206.6776
L48.9421 214.2197
" />
<path d="M54.8000 232.6776
L54.8000 228.3618
" />
<path d="M30.4000 206.6776
L41.4000 206.6776
" />
<path d="M368.6579 214.2579 A20.0000 20.0000 0.0 0 0 362.8000 228.4000" />
<path d="M352.5863 127.2842 A399.9993 399.9993 0.0 0 0 324.2171 108.5539" />
<path d="M352.5863 127.2841
L372.3108 141.5463
" />
<path d="M386.2299 168.6033 A35.0000 35.0000 0.0 0 0 372.3108 141.5463" />
<path d="M303.6614 96.2035 A75.0000 75.0000 0.0 0 0 267.1233 86.7013" />
<path d="M303.6614 96.2035
L324.2171 108.5539
" />
<path d="M362.8000 232.7157
L358.8000 236.7157
" />
<path d="M376.2000 206.7157
L368.6579 214.2579
" />
<path d="M362.8000 232.7157
L362.8000 228.4000
" />
<path d="M387.2000 206.7157
L376.2000 206.7157
" />
<path d="M386.2299 168.6033
L387.2000 206.7157
" />
<path style="fill:none; 
stroke:#000000; stroke-width:0.1000; stroke-opacity:1; 
stroke-linecap:round; stroke-linejoin:round;fill:none"
d="M 40.4817,169.8822
40.7274,169.8234
41.2257,169.7413
41.7292,169.7001
42.2343,169.7001
42.7377,169.7413
43.2361,169.8234
43.4817,169.8822
43.4817,172.1695
43.6645,172.2459
44.0153,172.4299
44.3463,172.6476
44.6541,172.8969
44.9359,173.1753
45.1887,173.4803
45.4102,173.8087
45.5982,174.1573
45.7509,174.5229
45.8667,174.9017
45.9445,175.2901
45.9836,175.6843
45.9836,176.0804
45.9445,176.4746
45.8666,176.8630
45.7508,177.2419
45.5981,177.6074
45.4101,177.9561
45.1886,178.2845
44.9357,178.5894
44.6539,178.8678
44.3461,179.1171
44.0151,179.3347
43.6642,179.5187
43.4815,179.5951
43.4817,181.8822
43.2361,181.9411
42.7377,182.0232
42.2343,182.0644
41.7292,182.0644
41.2257,182.0232
40.7274,181.9411
40.4817,181.8822
40.4817,179.5957
40.2990,179.5193
39.9481,179.3354
39.6171,179.1177
39.3093,178.8685
39.0275,178.5900
38.7746,178.2852
38.5530,177.9568
38.3650,177.6081
38.2123,177.2426
38.0964,176.8638
38.0184,176.4755
37.9792,176.0813
37.9791,175.6851
38.0181,175.2909
38.0959,174.9025
38.2116,174.5237
38.3641,174.1581
38.5520,173.8094
38.7734,173.4809
39.0262,173.1759
39.3078,172.8973
39.6156,172.6479
39.9465,172.4301
40.2972,172.2460
40.4799,172.1695
Z" /> 
<path style="fill:none; 
stroke:#000000; stroke-width:0.1000; stroke-opacity:1; 
stroke-linecap:round; stroke-linejoin:round;fill:none"
d="M 207.4817,108.8822
207.7274,108.8234
208.2257,108.7413
208.7292,108.7001
209.2343,108.7001
209.7377,108.7413
210.2361,108.8234
210.4817,108.8822
210.4817,111.1695
210.6645,111.2459
211.0153,111.4299
211.3463,111.6476
211.6541,111.8969
211.9359,112.1753
212.1887,112.4803
212.4102,112.8087
212.5982,113.1573
212.7509,113.5229
212.8667,113.9017
212.9445,114.2901
212.9836,114.6843
212.9836,115.0804
212.9445,115.4746
212.8666,115.8630
212.7508,116.2419
212.5981,116.6074
212.4101,116.9561
212.1886,117.2845
211.9357,117.5894
211.6539,117.8678
211.3461,118.1171
211.0151,118.3347
210.6642,118.5187
210.4815,118.5951
210.4817,120.8822
210.2361,120.9411
209.7377,121.0232
209.2343,121.0644
208.7292,121.0644
208.2257,121.0232
207.7274,120.9411
207.4817,120.8822
207.4817,118.5957
207.2990,118.5193
206.9481,118.3354
206.6171,118.1177
206.3093,117.8685
206.0275,117.5900
205.7746,117.2852
205.5530,116.9568
205.3650,116.6081
205.2123,116.2426
205.0964,115.8638
205.0184,115.4755
204.9792,115.0813
204.9791,114.6851
205.0181,114.2909
205.0959,113.9025
205.2116,113.5237
205.3641,113.1581
205.5520,112.8094
205.7734,112.4809
206.0262,112.1759
206.3078,111.8973
206.6156,111.6479
206.9465,111.4301
207.2972,111.2460
207.4799,111.1695
Z" /> 
<path style="fill:none; 
stroke:#000000; stroke-width:0.1000; stroke-opacity:1; 
stroke-linecap:round; stroke-linejoin:round;fill:none"
d="M 210.4851,182.9270
210.7273,182.9988
211.2000,183.1769
211.6565,183.3929
212.0940,183.6455
212.5094,183.9329
212.8999,184.2532
213.0832,184.4270
211.9396,186.4078
212.0596,186.5654
212.2715,186.9001
212.4493,187.2541
212.5912,187.6239
212.6960,188.0059
212.7625,188.3964
212.7901,188.7916
212.7786,189.1876
212.7280,189.5804
212.6389,189.9664
212.5121,190.3417
212.3489,190.7026
212.1508,191.0457
211.9198,191.3675
211.6582,191.6650
211.3685,191.9351
211.0535,192.1753
210.7163,192.3833
210.3603,192.5569
209.9888,192.6945
209.6056,192.7948
209.2143,192.8567
208.8189,192.8797
208.4231,192.8636
208.2266,192.8384
207.0832,194.8193
206.8411,194.7474
206.3684,194.5693
205.9118,194.3533
205.4744,194.1007
205.0590,193.8133
204.6685,193.4930
204.4851,193.3193
205.6284,191.3391
205.5084,191.1815
205.2965,190.8468
205.1186,190.4928
204.9766,190.1230
204.8718,189.7410
204.8053,189.3505
204.7776,188.9554
204.7890,188.5594
204.8395,188.1665
204.9286,187.7805
205.0553,187.4052
205.2184,187.0442
205.4164,186.7011
205.6473,186.3792
205.9088,186.0817
206.1984,185.8115
206.5133,185.5712
206.8504,185.3631
207.2064,185.1893
207.5778,185.0516
207.9610,184.9511
208.3522,184.8890
208.7477,184.8658
209.1435,184.8818
209.3400,184.9069
Z" /> 
<path style="fill:none; 
stroke:#000000; stroke-width:0.1000; stroke-opacity:1; 
stroke-linecap:round; stroke-linejoin:round;fill:none"
d="M 374.0817,169.8822
374.3274,169.8234
374.8257,169.7413
375.3292,169.7001
375.8343,169.7001
376.3377,169.7413
376.8361,169.8234
377.0817,169.8822
377.0817,172.1695
377.2645,172.2459
377.6153,172.4299
377.9463,172.6476
378.2541,172.8969
378.5359,173.1753
378.7887,173.4803
379.0102,173.8087
379.1982,174.1573
379.3509,174.5229
379.4667,174.9017
379.5445,175.2901
379.5836,175.6843
379.5836,176.0804
379.5445,176.4746
379.4666,176.8630
379.3508,177.2419
379.1981,177.6074
379.0101,177.9561
378.7886,178.2845
378.5357,178.5894
378.2539,178.8678
377.9461,179.1171
377.6151,179.3347
377.2642,179.5187
377.0815,179.5951
377.0817,181.8822
376.8361,181.9411
376.3377,182.0232
375.8343,182.0644
375.3292,182.0644
374.8257,182.0232
374.3274,181.9411
374.0817,181.8822
374.0817,179.5957
373.8990,179.5193
373.5481,179.3354
373.2172,179.1177
372.9093,178.8685
372.6275,178.5900
372.3746,178.2852
372.1530,177.9568
371.9650,177.6081
371.8123,177.2426
371.6964,176.8638
371.6184,176.4755
371.5792,176.0813
371.5791,175.6851
371.6181,175.2909
371.6959,174.9025
371.8116,174.5237
371.9641,174.1581
372.1520,173.8094
372.3734,173.4809
372.6262,173.1759
372.9078,172.8973
373.2156,172.6479
373.5465,172.4301
373.8972,172.2460
374.0799,172.1695
Z" /> 
<path style="fill:none; 
stroke:#000000; stroke-width:0.1000; stroke-opacity:1; 
stroke-linecap:round; stroke-linejoin:round;fill:none"
d="M 213.4866,96.1640
213.5630,95.9812
213.7469,95.6304
213.9645,95.2994
214.2138,94.9915
214.4922,94.7097
214.7971,94.4568
215.1255,94.2353
215.4741,94.0472
215.8396,93.8945
216.2184,93.7786
216.6068,93.7007
217.0010,93.6615
217.3971,93.6614
217.7913,93.7004
218.1797,93.7781
218.5586,93.8938
218.9242,94.0464
219.2729,94.2343
219.6014,94.4557
219.9064,94.7084
220.1849,94.9901
220.4344,95.2978
220.6522,95.6287
220.8362,95.9795
220.9127,96.1622
223.2000,96.1640
223.2588,96.4096
223.3409,96.9080
223.3821,97.4114
223.3821,97.9165
223.3409,98.4200
223.2588,98.9184
223.2000,99.1640
220.9127,99.1640
220.8363,99.3467
220.6524,99.6976
220.4347,100.0285
220.1854,100.3364
219.9069,100.6181
219.6020,100.8710
219.2736,101.0925
218.9249,101.2805
218.5594,101.4331
218.1805,101.5489
217.7921,101.6268
217.3979,101.6659
217.0018,101.6659
216.6076,101.6267
216.2192,101.5489
215.8404,101.4330
215.4749,101.2804
215.1262,101.0923
214.7978,100.8708
214.4929,100.6179
214.2144,100.3362
213.9652,100.0283
213.7475,99.6973
213.5636,99.3465
213.4872,99.1637
211.2000,99.1640
211.1412,98.9184
211.0591,98.4200
211.0179,97.9165
211.0179,97.4114
211.0591,96.9080
211.1412,96.4096
211.2000,96.1640
Z" /> 
<path style="fill:none; 
stroke:#000000; stroke-width:0.1000; stroke-opacity:1; 
stroke-linecap:round; stroke-linejoin:round;fill:none"
d="M 197.2866,96.1640
197.3630,95.9812
197.5469,95.6304
197.7645,95.2994
198.0138,94.9915
198.2922,94.7097
198.5971,94.4568
198.9255,94.2353
199.2741,94.0472
199.6396,93.8945
200.0184,93.7786
200.4068,93.7007
200.8010,93.6615
201.1971,93.6614
201.5913,93.7004
201.9797,93.7781
202.3586,93.8938
202.7242,94.0464
203.0729,94.2343
203.4014,94.4557
203.7064,94.7084
203.9849,94.9901
204.2344,95.2978
204.4522,95.6287
204.6362,95.9795
204.7127,96.1622
207.0000,96.1640
207.0588,96.4096
207.1409,96.9080
207.1821,97.4114
207.1821,97.9165
207.1409,98.4200
207.0588,98.9184
207.0000,99.1640
204.7127,99.1640
204.6363,99.3467
204.4524,99.6976
204.2347,100.0285
203.9854,100.3364
203.7069,100.6181
203.4020,100.8710
203.0736,101.0925
202.7249,101.2805
202.3594,101.4331
201.9805,101.5489
201.5921,101.6268
201.1979,101.6659
200.8018,101.6659
200.4076,101.6267
200.0192,101.5489
199.6404,101.4330
199.2749,101.2804
198.9262,101.0923
198.5978,100.8708
198.2929,100.6179
198.0144,100.3362
197.7652,100.0283
197.5475,99.6973
197.3636,99.3465
197.2872,99.1637
195.0000,99.1640
194.9412,98.9184
194.8591,98.4200
194.8179,97.9165
194.8179,97.4114
194.8591,96.9080
194.9412,96.4096
195.0000,96.1640
Z" /> 
<path style="fill:none; 
stroke:#000000; stroke-width:0.1000; stroke-opacity:1; 
stroke-linecap:round; stroke-linejoin:round;fill:none"
d="M 237.2866,175.8817
237.3630,175.6990
237.5469,175.3481
237.7645,175.0171
238.0138,174.7093
238.2922,174.4275
238.5971,174.1746
238.9255,173.9530
239.2741,173.7650
239.6396,173.6123
240.0184,173.4964
240.4068,173.4184
240.8010,173.3792
241.1971,173.3791
241.5913,173.4181
241.9797,173.4959
242.3586,173.6116
242.7242,173.7641
243.0729,173.9520
243.4014,174.1734
243.7064,174.4262
243.9849,174.7078
244.2344,175.0156
244.4522,175.3465
244.6362,175.6972
244.7127,175.8799
247.0000,175.8817
247.0588,176.1274
247.1409,176.6257
247.1821,177.1292
247.1821,177.6343
247.1409,178.1377
247.0588,178.6361
247.0000,178.8817
244.7127,178.8817
244.6363,179.0645
244.4524,179.4153
244.2347,179.7463
243.9854,180.0541
243.7069,180.3359
243.4020,180.5887
243.0736,180.8102
242.7249,180.9982
242.3594,181.1509
241.9805,181.2667
241.5921,181.3445
241.1979,181.3836
240.8018,181.3836
240.4076,181.3445
240.0192,181.2666
239.6404,181.1508
239.2749,180.9981
238.9262,180.8101
238.5978,180.5886
238.2929,180.3357
238.0144,180.0539
237.7652,179.7461
237.5475,179.4151
237.3636,179.0642
237.2872,178.8815
235.0000,178.8817
234.9412,178.6361
234.8591,178.1377
234.8179,177.6343
234.8179,177.1292
234.8591,176.6257
234.9412,176.1274
235.0000,175.8817
Z" /> 
<path style="fill:none; 
stroke:#000000; stroke-width:0.1000; stroke-opacity:1; 
stroke-linecap:round; stroke-linejoin:round;fill:none"
d="M 349.2817,206.0000
349.5274,205.9412
350.0257,205.8591
350.5292,205.8179
351.0343,205.8179
351.5377,205.8591
352.0361,205.9412
352.2817,206.0000
352.2817,208.2873
352.4645,208.3637
352.8153,208.5476
353.1463,208.7653
353.4541,209.0146
353.7359,209.2931
353.9887,209.5980
354.2102,209.9264
354.3982,210.2751
354.5509,210.6406
354.6667,211.0195
354.7445,211.4079
354.7836,211.8021
354.7836,212.1982
354.7445,212.5924
354.6666,212.9808
354.5508,213.3596
354.3981,213.7251
354.2101,214.0738
353.9886,214.4022
353.7357,214.7071
353.4539,214.9856
353.1461,215.2348
352.8151,215.4525
352.4642,215.6364
352.2815,215.7128
352.2817,218.0000
352.0361,218.0588
351.5377,218.1409
351.0343,218.1821
350.5292,218.1821
350.0257,218.1409
349.5274,218.0588
349.2817,218.0000
349.2817,215.7134
349.0990,215.6370
348.7481,215.4531
348.4171,215.2355
348.1093,214.9862
347.8275,214.7078
347.5746,214.4029
347.3530,214.0745
347.1650,213.7259
347.0123,213.3604
346.8964,212.9816
346.8184,212.5932
346.7792,212.1990
346.7791,211.8029
346.8181,211.4087
346.8959,211.0203
347.0116,210.6414
347.1641,210.2758
347.3520,209.9271
347.5734,209.5986
347.8262,209.2936
348.1078,209.0151
348.4156,208.7656
348.7465,208.5478
349.0972,208.3638
349.2799,208.2873
Z" /> 
<path style="fill:none; 
stroke:#000000; stroke-width:0.1000; stroke-opacity:1; 
stroke-linecap:round; stroke-linejoin:round;fill:none"
d="M 326.8866,210.4817
326.9630,210.2990
327.1469,209.9481
327.3645,209.6171
327.6138,209.3093
327.8922,209.0275
328.1971,208.7746
328.5255,208.5530
328.8741,208.3650
329.2396,208.2123
329.6184,208.0964
330.0068,208.0184
330.4010,207.9792
330.7971,207.9791
331.1913,208.0181
331.5797,208.0959
331.9586,208.2116
332.3242,208.3641
332.6729,208.5520
333.0014,208.7734
333.3064,209.0262
333.5849,209.3078
333.8344,209.6156
334.0522,209.9465
334.2362,210.2972
334.3127,210.4799
336.6000,210.4817
336.6588,210.7274
336.7409,211.2257
336.7821,211.7292
336.7821,212.2343
336.7409,212.7377
336.6588,213.2361
336.6000,213.4817
334.3127,213.4817
334.2363,213.6645
334.0524,214.0153
333.8347,214.3463
333.5854,214.6541
333.3069,214.9359
333.0020,215.1887
332.6736,215.4102
332.3249,215.5982
331.9594,215.7509
331.5805,215.8667
331.1921,215.9445
330.7979,215.9836
330.4018,215.9836
330.0076,215.9445
329.6192,215.8666
329.2404,215.7508
328.8749,215.5981
328.5262,215.4101
328.1978,215.1886
327.8929,214.9357
327.6144,214.6539
327.3652,214.3461
327.1475,214.0151
326.9636,213.6642
326.8872,213.4815
324.6000,213.4817
324.5412,213.2361
324.4591,212.7377
324.4179,212.2343
324.4179,211.7292
324.4591,211.2257
324.5412,210.7274
324.6000,210.4817
Z" /> 
<path style="fill:none; 
stroke:#000000; stroke-width:0.1000; stroke-opacity:1; 
stroke-linecap:round; stroke-linejoin:round;fill:none"
d="M 246.0866,210.4817
246.1630,210.2990
246.3469,209.9481
246.5645,209.6171
246.8138,209.3093
247.0922,209.0275
247.3971,208.7746
247.7255,208.5530
248.0741,208.3650
248.4396,208.2123
248.8184,208.0964
249.2068,208.0184
249.6010,207.9792
249.9971,207.9791
250.3913,208.0181
250.7797,208.0959
251.1586,208.2116
251.5242,208.3641
251.8729,208.5520
252.2014,208.7734
252.5064,209.0262
252.7849,209.3078
253.0344,209.6156
253.2522,209.9465
253.4362,210.2972
253.5127,210.4799
255.8000,210.4817
255.8588,210.7274
255.9409,211.2257
255.9821,211.7292
255.9821,212.2343
255.9409,212.7377
255.8588,213.2361
255.8000,213.4817
253.5127,213.4817
253.4363,213.6645
253.2524,214.0153
253.0347,214.3463
252.7854,214.6541
252.5069,214.9359
252.2020,215.1887
251.8736,215.4102
251.5249,215.5982
251.1594,215.7509
250.7805,215.8667
250.3921,215.9445
249.9979,215.9836
249.6018,215.9836
249.2076,215.9445
248.8192,215.8666
248.4404,215.7508
248.0749,215.5981
247.7262,215.4101
247.3978,215.1886
247.0929,214.9357
246.8144,214.6539
246.5652,214.3461
246.3475,214.0151
246.1636,213.6642
246.0872,213.4815
243.8000,213.4817
243.7412,213.2361
243.6591,212.7377
243.6179,212.2343
243.6179,211.7292
243.6591,211.2257
243.7412,210.7274
243.8000,210.4817
Z" /> 
<path style="fill:none; 
stroke:#000000; stroke-width:0.1000; stroke-opacity:1; 
stroke-linecap:round; stroke-linejoin:round;fill:none"
d="M 266.2866,210.4817
266.3630,210.2990
266.5469,209.9481
266.7645,209.6171
267.0138,209.3093
267.2922,209.0275
267.5971,208.7746
267.9255,208.5530
268.2741,208.3650
268.6396,208.2123
269.0184,208.0964
269.4068,208.0184
269.8010,207.9792
270.1971,207.9791
270.5913,208.0181
270.9797,208.0959
271.3586,208.2116
271.7242,208.3641
272.0729,208.5520
272.4014,208.7734
272.7064,209.0262
272.9849,209.3078
273.2344,209.6156
273.4522,209.9465
273.6362,210.2972
273.7127,210.4799
276.0000,210.4817
276.0588,210.7274
276.1409,211.2257
276.1821,211.7292
276.1821,212.2343
276.1409,212.7377
276.0588,213.2361
276.0000,213.4817
273.7127,213.4817
273.6363,213.6645
273.4524,214.0153
273.2347,214.3463
272.9854,214.6541
272.7069,214.9359
272.4020,215.1887
272.0736,215.4102
271.7249,215.5982
271.3594,215.7509
270.9805,215.8667
270.5921,215.9445
270.1979,215.9836
269.8018,215.9836
269.4076,215.9445
269.0192,215.8666
268.6404,215.7508
268.2749,215.5981
267.9262,215.4101
267.5978,215.1886
267.2929,214.9357
267.0144,214.6539
266.7652,214.3461
266.5475,214.0151
266.3636,213.6642
266.2872,213.4815
264.0000,213.4817
263.9412,213.2361
263.8591,212.7377
263.8179,212.2343
263.8179,211.7292
263.8591,211.2257
263.9412,210.7274
264.0000,210.4817
Z" /> 
<path style="fill:none; 
stroke:#000000; stroke-width:0.1000; stroke-opacity:1; 
stroke-linecap:round; stroke-linejoin:round;fill:none"
d="M 286.4866,210.4817
286.5630,210.2990
286.7469,209.9481
286.9645,209.6171
287.2138,209.3093
287.4922,209.0275
287.7971,208.7746
288.1255,208.5530
288.4741,208.3650
288.8396,208.2123
289.2184,208.0964
289.6068,208.0184
290.0010,207.9792
290.3971,207.9791
290.7913,208.0181
291.1797,208.0959
291.5586,208.2116
291.9242,208.3641
292.2729,208.5520
292.6014,208.7734
292.9064,209.0262
293.1850,209.3078
293.4344,209.6156
293.6522,209.9465
293.8362,210.2972
293.9127,210.4799
296.2000,210.4817
296.2588,210.7274
296.3409,211.2257
296.3821,211.7292
296.3821,212.2343
296.3409,212.7377
296.2588,213.2361
296.2000,213.4817
293.9127,213.4817
293.8363,213.6645
293.6524,214.0153
293.4347,214.3463
293.1854,214.6541
292.9069,214.9359
292.6020,215.1887
292.2736,215.4102
291.9249,215.5982
291.5594,215.7509
291.1805,215.8667
290.7921,215.9445
290.3979,215.9836
290.0018,215.9836
289.6076,215.9445
289.2192,215.8666
288.8404,215.7508
288.4749,215.5981
288.1262,215.4101
287.7978,215.1886
287.4929,214.9357
287.2144,214.6539
286.9652,214.3461
286.7475,214.0151
286.5636,213.6642
286.4872,213.4815
284.2000,213.4817
284.1412,213.2361
284.0591,212.7377
284.0179,212.2343
284.0179,211.7292
284.0591,211.2257
284.1412,210.7274
284.2000,210.4817
Z" /> 
<path style="fill:none; 
stroke:#000000; stroke-width:0.1000; stroke-opacity:1; 
stroke-linecap:round; stroke-linejoin:round;fill:none"
d="M 143.4712,210.4817
143.5476,210.2990
143.7315,209.9481
143.9492,209.6171
144.1984,209.3093
144.4769,209.0275
144.7817,208.7746
145.1101,208.5530
145.4588,208.3650
145.8243,208.2123
146.2031,208.0964
146.5914,208.0184
146.9856,207.9792
147.3818,207.9791
147.7760,208.0181
148.1644,208.0959
148.5432,208.2116
148.9088,208.3641
149.2575,208.5520
149.5860,208.7734
149.8910,209.0262
150.1696,209.3078
150.4190,209.6156
150.6368,209.9465
150.8209,210.2972
150.8974,210.4799
153.1847,210.4817
153.2435,210.7274
153.3256,211.2257
153.3668,211.7292
153.3668,212.2343
153.3256,212.7377
153.2435,213.2361
153.1847,213.4817
150.8974,213.4817
150.8210,213.6645
150.6370,214.0153
150.4193,214.3463
150.1701,214.6541
149.8916,214.9359
149.5866,215.1887
149.2582,215.4102
148.9096,215.5982
148.5440,215.7509
148.1652,215.8667
147.7768,215.9445
147.3826,215.9836
146.9865,215.9836
146.5923,215.9445
146.2039,215.8666
145.8250,215.7508
145.4595,215.5981
145.1108,215.4101
144.7825,215.1886
144.4775,214.9357
144.1991,214.6539
143.9498,214.3461
143.7322,214.0151
143.5482,213.6642
143.4718,213.4815
141.1847,213.4817
141.1258,213.2361
141.0437,212.7377
141.0025,212.2343
141.0025,211.7292
141.0437,211.2257
141.1258,210.7274
141.1847,210.4817
Z" /> 
<path style="fill:none; 
stroke:#000000; stroke-width:0.1000; stroke-opacity:1; 
stroke-linecap:round; stroke-linejoin:round;fill:none"
d="M 125.4817,206.0000
125.7274,205.9412
126.2257,205.8591
126.7292,205.8179
127.2343,205.8179
127.7377,205.8591
128.2361,205.9412
128.4817,206.0000
128.4817,208.2873
128.6645,208.3637
129.0153,208.5476
129.3463,208.7653
129.6541,209.0146
129.9359,209.2931
130.1887,209.5980
130.4102,209.9264
130.5982,210.2751
130.7509,210.6406
130.8667,211.0195
130.9445,211.4079
130.9836,211.8021
130.9836,212.1982
130.9445,212.5924
130.8666,212.9808
130.7508,213.3596
130.5981,213.7251
130.4101,214.0738
130.1886,214.4022
129.9357,214.7071
129.6539,214.9856
129.3461,215.2348
129.0151,215.4525
128.6642,215.6364
128.4815,215.7128
128.4817,218.0000
128.2361,218.0588
127.7377,218.1409
127.2343,218.1821
126.7292,218.1821
126.2257,218.1409
125.7274,218.0588
125.4817,218.0000
125.4817,215.7134
125.2990,215.6370
124.9481,215.4531
124.6171,215.2355
124.3093,214.9862
124.0275,214.7078
123.7746,214.4029
123.5530,214.0745
123.3650,213.7259
123.2123,213.3604
123.0964,212.9816
123.0184,212.5932
122.9792,212.1990
122.9791,211.8029
123.0181,211.4087
123.0959,211.0203
123.2116,210.6414
123.3641,210.2758
123.5520,209.9271
123.7734,209.5986
124.0262,209.2936
124.3078,209.0151
124.6156,208.7656
124.9465,208.5478
125.2972,208.3638
125.4799,208.2873
Z" /> 
</g> 
</svg>
